# ProBuilder 4.5.0
# https://unity3d.com/unity/features/worldbuilding/probuilder
# 12/05/2021 16:21:38

mtllib ./New_Game_Object_(1).mtl
o New Game Object (1)

g New Game Object (1)
v -6.978514 -0.0439682 0.1224842
v -3.161224E-09 -0.04396629 -1.849118E-09
v -3.093311 -0.0439682 -1.863054
v -0.2319794 -0.04397011 -2.011449
v -5.482257 0.02725124 -1.724644
v -6.882344 -0.04396629 -13.54597
v -4.849619 -0.0439682 -13.43418
v -7.174354 0 -13.54598
v -4.849619 -1.907349E-06 -13.43418
v -4.586096 0 -3.069586
v -6.987749 -9.536743E-07 0.1224847
v -3.689048 -9.536743E-07 -1.765405
v -0.2319794 -3.814697E-06 -2.011449
v 0 0 0

vt -6.978514 0.1224842
vt -1.560536E-08 -2.619918E-08
vt -3.093311 -1.863054
vt -0.2319793 -2.011449
vt -3.090086 -1.849335
vt -5.480077 -1.710626
vt -6.973095 0.1404912
vt -6.972592 0.1225823
vt -5.474642 -1.724546
vt -6.876533 -13.54588
vt -5.482266 -1.724458
vt -4.849605 -13.43421
vt -6.882329 -13.54601
vt 7.174354 -13.54598
vt 4.849619 -13.43418
vt 4.586096 -3.069586
vt 6.987749 0.1224847
vt 3.689048 -1.765405
vt 0.2319794 -2.011449
vt 7.615803 -0.04396629
vt 5.580007 -0.0439682
vt 5.580007 -1.907349E-06
vt 7.525049 -4.053401
vt 5.489301 -4.007254
vt 7.816722 -4.007252
vt -4.847301 -13.43478
vt -5.481419 -1.725106
vt -4.584867 -3.070063
vt 13.55311 -0.0439682
vt 3.18516 0
vt 13.55311 -1.907349E-06
vt -6.894188 0.1236182
vt -6.799089 -13.54485
vt -7.094391 -13.54485
vt 0.02720925 1.391453
vt -13.64265 1.43638
vt 0.02708366 1.436379
vt 5.482324 -1.594528
vt 3.093006 -1.744389
vt 3.688987 -1.638661
vt -5.482051 -1.725116
vt -3.688635 -1.76588
vt -4.585583 -3.07013
vt 2.992667 -0.0439682
vt 0.1274901 -0.04397011
vt 0.1274901 -3.814697E-06
vt 3.090848 -1.377203
vt 0.2316084 -1.566732
vt 3.683146 -1.252485
vt 2.024782 -0.04397011
vt 2.199123E-09 -0.04396629
vt 2.024782 -3.814697E-06
vt -6.979589 -0.04396791
vt -6.988822 -3.599368E-07

vn 2.83038E-07 -1 5.538347E-07
vn -0.0335326 -0.9972814 -0.06561494
vn 0.04796004 -0.9988492 0.0003373044
vn -0.0003344333 -0.9999816 0.006063993
vn 8.303232E-07 1 -2.051366E-07
vn 0.05491251 0 -0.9984912
vn 0.04576078 0.3039081 -0.9516017
vn -0.02315216 -0.9997203 0.004829617
vn 0.9996769 0 -0.0254171
vn -0.148886 -0.9888538 -0.00104769
vn -0.9785603 -0.2055269 0.01335955
vn 0.005321511 0.9235752 -0.3833804
vn -0.01496105 -0.9998351 0.01028984
vn -0.05179247 0 -0.9986579
vn -0.04427275 0.7817101 -0.6220685
vn 0.9934152 0 -0.1145701
vn 0.01754879 0.003674925 0.9998392
vn 0.0175258 -4.331129E-08 0.9998464

usemtl ProBuilderDefault
f 3/3/1 2/2/1 1/1/1
f 3/3/1 4/4/1 2/2/1
f 1/7/2 5/6/2 3/5/2
f 6/10/3 5/9/3 1/8/3
f 6/13/4 7/12/4 5/11/4
f 10/16/5 9/15/5 8/14/5
f 11/17/5 10/16/5 8/14/5
f 12/18/5 10/16/5 11/17/5
f 14/2/5 13/19/5 12/18/5
f 11/17/5 14/2/5 12/18/5
f 9/22/6 7/21/6 6/20/6
f 8/25/7 9/24/7 6/23/7
f 10/28/8 5/27/8 7/26/8
f 9/31/9 10/30/9 7/29/9
f 8/34/10 6/33/10 1/32/10
f 11/37/11 8/36/11 1/35/11
f 12/40/12 3/39/12 5/38/12
f 10/43/13 12/42/13 5/41/13
f 13/46/14 4/45/14 3/44/14
f 12/49/15 13/48/15 3/47/15
f 14/2/16 2/51/16 4/50/16
f 13/52/16 14/2/16 4/50/16
f 11/54/17 1/53/17 2/51/17
f 14/2/18 11/54/18 2/51/18

